<svg id="visual" viewBox="0 0 960 300" width="960" height="300" xmlns="http://www.w3.org/2000/svg" xmlns:xlink="http://www.w3.org/1999/xlink" version="1.1"><rect x="0" y="0" width="960" height="300" fill="#24252A"></rect><path d="M0 195L22.8 198.8C45.7 202.7 91.3 210.3 137 210.8C182.7 211.3 228.3 204.7 274 202.3C319.7 200 365.3 202 411.2 205.3C457 208.7 503 213.3 548.8 212C594.7 210.7 640.3 203.3 686 201.3C731.7 199.3 777.3 202.7 823 204.8C868.7 207 914.3 208 937.2 208.5L960 209L960 301L937.2 301C914.3 301 868.7 301 823 301C777.3 301 731.7 301 686 301C640.3 301 594.7 301 548.8 301C503 301 457 301 411.2 301C365.3 301 319.7 301 274 301C228.3 301 182.7 301 137 301C91.3 301 45.7 301 22.8 301L0 301Z" fill="#96a2fb"></path><path d="M0 206L22.8 205.3C45.7 204.7 91.3 203.3 137 203.7C182.7 204 228.3 206 274 210.7C319.7 215.3 365.3 222.7 411.2 225.3C457 228 503 226 548.8 224.2C594.7 222.3 640.3 220.7 686 221C731.7 221.3 777.3 223.7 823 220.3C868.7 217 914.3 208 937.2 203.5L960 199L960 301L937.2 301C914.3 301 868.7 301 823 301C777.3 301 731.7 301 686 301C640.3 301 594.7 301 548.8 301C503 301 457 301 411.2 301C365.3 301 319.7 301 274 301C228.3 301 182.7 301 137 301C91.3 301 45.7 301 22.8 301L0 301Z" fill="#797cdd"></path><path d="M0 231L22.8 229.5C45.7 228 91.3 225 137 226.3C182.7 227.7 228.3 233.3 274 236C319.7 238.7 365.3 238.3 411.2 235C457 231.7 503 225.3 548.8 225.3C594.7 225.3 640.3 231.7 686 233.7C731.7 235.7 777.3 233.3 823 234.7C868.7 236 914.3 241 937.2 243.5L960 246L960 301L937.2 301C914.3 301 868.7 301 823 301C777.3 301 731.7 301 686 301C640.3 301 594.7 301 548.8 301C503 301 457 301 411.2 301C365.3 301 319.7 301 274 301C228.3 301 182.7 301 137 301C91.3 301 45.7 301 22.8 301L0 301Z" fill="#5f57be"></path><path d="M0 251L22.8 251.2C45.7 251.3 91.3 251.7 137 250.8C182.7 250 228.3 248 274 250.8C319.7 253.7 365.3 261.3 411.2 260.8C457 260.3 503 251.7 548.8 249C594.7 246.3 640.3 249.7 686 250C731.7 250.3 777.3 247.7 823 249.5C868.7 251.3 914.3 257.7 937.2 260.8L960 264L960 301L937.2 301C914.3 301 868.7 301 823 301C777.3 301 731.7 301 686 301C640.3 301 594.7 301 548.8 301C503 301 457 301 411.2 301C365.3 301 319.7 301 274 301C228.3 301 182.7 301 137 301C91.3 301 45.7 301 22.8 301L0 301Z" fill="#47319e"></path><path d="M0 264L22.8 263.8C45.7 263.7 91.3 263.3 137 265.3C182.7 267.3 228.3 271.7 274 272.7C319.7 273.7 365.3 271.3 411.2 269C457 266.7 503 264.3 548.8 264.3C594.7 264.3 640.3 266.7 686 267.2C731.7 267.7 777.3 266.3 823 266.8C868.7 267.3 914.3 269.7 937.2 270.8L960 272L960 301L937.2 301C914.3 301 868.7 301 823 301C777.3 301 731.7 301 686 301C640.3 301 594.7 301 548.8 301C503 301 457 301 411.2 301C365.3 301 319.7 301 274 301C228.3 301 182.7 301 137 301C91.3 301 45.7 301 22.8 301L0 301Z" fill="#30017e"></path></svg>