<svg id="visual" viewBox="0 0 960 300" width="960" height="300" xmlns="http://www.w3.org/2000/svg" xmlns:xlink="http://www.w3.org/1999/xlink" version="1.1"><path d="M0 52L14.5 54C29 56 58 60 87.2 66.5C116.3 73 145.7 82 174.8 91C204 100 233 109 262 111.5C291 114 320 110 349 108.5C378 107 407 108 436.2 106.5C465.3 105 494.7 101 523.8 101.5C553 102 582 107 611 103C640 99 669 86 698 79C727 72 756 71 785.2 73C814.3 75 843.7 80 872.8 76.5C902 73 931 61 945.5 55L960 49L960 0L945.5 0C931 0 902 0 872.8 0C843.7 0 814.3 0 785.2 0C756 0 727 0 698 0C669 0 640 0 611 0C582 0 553 0 523.8 0C494.7 0 465.3 0 436.2 0C407 0 378 0 349 0C320 0 291 0 262 0C233 0 204 0 174.8 0C145.7 0 116.3 0 87.2 0C58 0 29 0 14.5 0L0 0Z" fill="#24252a"></path><path d="M0 112L14.5 114C29 116 58 120 87.2 121C116.3 122 145.7 120 174.8 126C204 132 233 146 262 150C291 154 320 148 349 149C378 150 407 158 436.2 157C465.3 156 494.7 146 523.8 145.5C553 145 582 154 611 147.5C640 141 669 119 698 110C727 101 756 105 785.2 106C814.3 107 843.7 105 872.8 103.5C902 102 931 101 945.5 100.5L960 100L960 47L945.5 53C931 59 902 71 872.8 74.5C843.7 78 814.3 73 785.2 71C756 69 727 70 698 77C669 84 640 97 611 101C582 105 553 100 523.8 99.5C494.7 99 465.3 103 436.2 104.5C407 106 378 105 349 106.5C320 108 291 112 262 109.5C233 107 204 98 174.8 89C145.7 80 116.3 71 87.2 64.5C58 58 29 54 14.5 52L0 50Z" fill="#493d55"></path><path d="M0 220L14.5 217.5C29 215 58 210 87.2 213C116.3 216 145.7 227 174.8 230C204 233 233 228 262 218.5C291 209 320 195 349 198C378 201 407 221 436.2 227.5C465.3 234 494.7 227 523.8 226.5C553 226 582 232 611 236.5C640 241 669 244 698 241C727 238 756 229 785.2 219C814.3 209 843.7 198 872.8 198.5C902 199 931 211 945.5 217L960 223L960 98L945.5 98.5C931 99 902 100 872.8 101.5C843.7 103 814.3 105 785.2 104C756 103 727 99 698 108C669 117 640 139 611 145.5C582 152 553 143 523.8 143.5C494.7 144 465.3 154 436.2 155C407 156 378 148 349 147C320 146 291 152 262 148C233 144 204 130 174.8 124C145.7 118 116.3 120 87.2 119C58 118 29 114 14.5 112L0 110Z" fill="#845073"></path><path d="M0 250L14.5 249C29 248 58 246 87.2 248C116.3 250 145.7 256 174.8 258.5C204 261 233 260 262 255C291 250 320 241 349 242C378 243 407 254 436.2 257.5C465.3 261 494.7 257 523.8 256.5C553 256 582 259 611 261.5C640 264 669 266 698 267C727 268 756 268 785.2 263C814.3 258 843.7 248 872.8 244C902 240 931 242 945.5 243L960 244L960 221L945.5 215C931 209 902 197 872.8 196.5C843.7 196 814.3 207 785.2 217C756 227 727 236 698 239C669 242 640 239 611 234.5C582 230 553 224 523.8 224.5C494.7 225 465.3 232 436.2 225.5C407 219 378 199 349 196C320 193 291 207 262 216.5C233 226 204 231 174.8 228C145.7 225 116.3 214 87.2 211C58 208 29 213 14.5 215.5L0 218Z" fill="#c5637b"></path><path d="M0 301L14.5 301C29 301 58 301 87.2 301C116.3 301 145.7 301 174.8 301C204 301 233 301 262 301C291 301 320 301 349 301C378 301 407 301 436.2 301C465.3 301 494.7 301 523.8 301C553 301 582 301 611 301C640 301 669 301 698 301C727 301 756 301 785.2 301C814.3 301 843.7 301 872.8 301C902 301 931 301 945.5 301L960 301L960 242L945.5 241C931 240 902 238 872.8 242C843.7 246 814.3 256 785.2 261C756 266 727 266 698 265C669 264 640 262 611 259.5C582 257 553 254 523.8 254.5C494.7 255 465.3 259 436.2 255.5C407 252 378 241 349 240C320 239 291 248 262 253C233 258 204 259 174.8 256.5C145.7 254 116.3 248 87.2 246C58 244 29 246 14.5 247L0 248Z" fill="#fb806f"></path></svg>